<?xml version="1.0" encoding="UTF-8"?>
<svg id="Layer_1" xmlns="http://www.w3.org/2000/svg" version="1.1" viewBox="0 0 756 42">
  <!-- Generator: Adobe Illustrator 29.0.1, SVG Export Plug-In . SVG Version: 2.1.0 Build 192)  -->
  <defs>
    <style>
      .st0 {
        fill: #2017d9;
      }

      .Graphic_x0020_Style {
        fill: #dddad9;
      }
    </style>
  </defs>
  <g>
    <path class="st0" d="M1.6,39.7V1.5h22.2v3.7H6v13.7h15.8v3.7H6v17H1.6Z"/>
    <path class="st0" d="M60.2,26.4V1.5h4.4v24.8c0,4.5-1.2,8-3.6,10.3-2.4,2.4-5.9,3.6-10.6,3.6s-8.1-1.2-10.6-3.6c-2.4-2.4-3.6-5.8-3.6-10.3V1.5h4.4v24.8c0,3.3.8,5.8,2.5,7.6,1.7,1.7,4.1,2.6,7.3,2.6s5.6-.9,7.3-2.6c1.7-1.7,2.5-4.3,2.5-7.6Z"/>
    <path class="st0" d="M79.9,39.7V1.5h3.6l21.2,29.6h.1V1.5h4.4v38.2h-3.6l-21.2-29.6h-.1v29.6h-4.4Z"/>
    <path class="st0" d="M136.8,39.7h-11.8V1.5h11.8c5.6,0,9.9,1.6,12.9,4.9,2.9,3.3,4.4,8,4.4,14.2s-1.5,10.9-4.4,14.2c-2.9,3.3-7.2,4.9-12.9,4.9ZM136.8,5.3h-7.5v30.8h7.5c4.2,0,7.4-1.3,9.6-4s3.3-6.4,3.3-11.4-1.1-8.8-3.3-11.4c-2.2-2.6-5.4-4-9.6-4Z"/>
    <path class="st0" d="M163.5,39.7L178.9,1.5h3.4l15.4,38.2h-4.7l-3.8-9.6h-17.2l-3.8,9.6h-4.7ZM173.4,26.4h14.4l-7.1-18.2h-.1l-7.1,18.2Z"/>
    <path class="st0" d="M213.1,1.5l15.5,22,15.5-22h3.6v38.2h-4.4V10h-.1l-13.5,19.1h-2.3l-13.5-19.1h-.1v29.7h-4.4V1.5h3.6Z"/>
    <path class="st0" d="M263.6,39.7V1.5h22.9v3.7h-18.5v13.3h16.5v3.7h-16.5v13.7h18.9v3.7h-23.3Z"/>
    <path class="st0" d="M300.3,39.7V1.5h3.6l21.2,29.6h.1V1.5h4.4v38.2h-3.6l-21.2-29.6h-.1v29.6h-4.4Z"/>
    <path class="st0" d="M357.4,5.3v34.5h-4.4V5.3h-12V1.5h28.4v3.7h-12Z"/>
    <path class="st0" d="M373.7,39.7l15.4-38.2h3.4l15.4,38.2h-4.7l-3.8-9.6h-17.2l-3.8,9.6h-4.7ZM383.6,26.4h14.4l-7.1-18.2h-.1l-7.1,18.2Z"/>
    <path class="st0" d="M424,1.5v34.5h18.5v3.7h-22.9V1.5h4.4Z"/>
    <path class="st0" d="M468.9,39.7l15.4-38.2h3.4l15.4,38.2h-4.7l-3.8-9.6h-17.2l-3.8,9.6h-4.7ZM478.7,26.4h14.4l-7.1-18.2h-.1l-7.1,18.2Z"/>
    <path class="st0" d="M514.8,39.7V1.5h11.7c4.7,0,8.2,1,10.7,2.9,2.5,1.9,3.7,4.7,3.7,8.4s-.7,5.1-2.2,6.8c-1.5,1.8-3.6,3-6.3,3.7l9.8,16.3h-4.9l-9.4-15.7c-.3,0-.5,0-.7,0s-.5,0-.7,0h-7.4v15.6h-4.4ZM519.2,20.4h7.5c3.2,0,5.7-.6,7.4-1.9,1.7-1.3,2.6-3.2,2.6-5.6s-.9-4.4-2.6-5.6c-1.7-1.3-4.2-1.9-7.4-1.9h-7.5v15.2Z"/>
    <path class="st0" d="M567,5.3v34.5h-4.4V5.3h-12V1.5h28.4v3.7h-12Z"/>
    <path class="st0" d="M590.5,39.7V1.5h4.4v38.2h-4.4Z"/>
    <path class="st0" d="M610.7,39.7V1.5h22.2v3.7h-17.8v13.7h15.8v3.7h-15.8v17h-4.4Z"/>
    <path class="st0" d="M640.3,39.7l15.4-38.2h3.4l15.4,38.2h-4.7l-3.8-9.6h-17.2l-3.8,9.6h-4.7ZM650.2,26.4h14.4l-7.1-18.2h-.1l-7.1,18.2Z"/>
    <path class="st0" d="M700.1,40.3c-5.3,0-9.3-1.7-12.1-5.1-2.8-3.4-4.1-8.2-4.1-14.6s1.4-11.2,4.1-14.6c2.8-3.4,6.8-5.1,12.1-5.1s7.7,1.2,10.1,3.6c2.5,2.4,4,5.8,4.5,10.3h-4.4c-.5-3.3-1.6-5.8-3.3-7.6-1.7-1.7-4-2.6-7-2.6s-6.8,1.4-8.8,4.1c-2,2.8-3,6.7-3,11.8s1,9,3,11.8c2,2.8,5,4.1,8.8,4.1s5.2-.9,7-2.6c1.7-1.7,2.8-4.3,3.3-7.6h4.4c-.5,4.5-2,8-4.5,10.3-2.5,2.4-5.9,3.6-10.1,3.6Z"/>
    <path class="st0" d="M739.7,5.3v34.5h-4.4V5.3h-12V1.5h28.4v3.7h-12Z"/>
  </g>
  <g>
    <path class="Graphic_x0020_Style" d="M1.6,39.7V1.5h22.2v3.7H6v13.7h15.8v3.7H6v17H1.6Z"/>
    <path class="Graphic_x0020_Style" d="M60.2,26.4V1.5h4.4v24.8c0,4.5-1.2,8-3.6,10.3-2.4,2.4-5.9,3.6-10.6,3.6s-8.1-1.2-10.6-3.6c-2.4-2.4-3.6-5.8-3.6-10.3V1.5h4.4v24.8c0,3.3.8,5.8,2.5,7.6,1.7,1.7,4.1,2.6,7.3,2.6s5.6-.9,7.3-2.6c1.7-1.7,2.5-4.3,2.5-7.6Z"/>
    <path class="Graphic_x0020_Style" d="M79.9,39.7V1.5h3.6l21.2,29.6h.1V1.5h4.4v38.2h-3.6l-21.2-29.6h-.1v29.6h-4.4Z"/>
    <path class="Graphic_x0020_Style" d="M136.8,39.7h-11.8V1.5h11.8c5.6,0,9.9,1.6,12.9,4.9,2.9,3.3,4.4,8,4.4,14.2s-1.5,10.9-4.4,14.2c-2.9,3.3-7.2,4.9-12.9,4.9ZM136.8,5.3h-7.5v30.8h7.5c4.2,0,7.4-1.3,9.6-4s3.3-6.4,3.3-11.4-1.1-8.8-3.3-11.4c-2.2-2.6-5.4-4-9.6-4Z"/>
    <path class="Graphic_x0020_Style" d="M163.5,39.7L178.9,1.5h3.4l15.4,38.2h-4.7l-3.8-9.6h-17.2l-3.8,9.6h-4.7ZM173.4,26.4h14.4l-7.1-18.2h-.1l-7.1,18.2Z"/>
    <path class="Graphic_x0020_Style" d="M213.1,1.5l15.5,22,15.5-22h3.6v38.2h-4.4V10h-.1l-13.5,19.1h-2.3l-13.5-19.1h-.1v29.7h-4.4V1.5h3.6Z"/>
    <path class="Graphic_x0020_Style" d="M263.6,39.7V1.5h22.9v3.7h-18.5v13.3h16.5v3.7h-16.5v13.7h18.9v3.7h-23.3Z"/>
    <path class="Graphic_x0020_Style" d="M300.3,39.7V1.5h3.6l21.2,29.6h.1V1.5h4.4v38.2h-3.6l-21.2-29.6h-.1v29.6h-4.4Z"/>
    <path class="Graphic_x0020_Style" d="M357.4,5.3v34.5h-4.4V5.3h-12V1.5h28.4v3.7h-12Z"/>
    <path class="Graphic_x0020_Style" d="M373.7,39.7l15.4-38.2h3.4l15.4,38.2h-4.7l-3.8-9.6h-17.2l-3.8,9.6h-4.7ZM383.6,26.4h14.4l-7.1-18.2h-.1l-7.1,18.2Z"/>
    <path class="Graphic_x0020_Style" d="M424,1.5v34.5h18.5v3.7h-22.9V1.5h4.4Z"/>
    <path class="Graphic_x0020_Style" d="M468.9,39.7l15.4-38.2h3.4l15.4,38.2h-4.7l-3.8-9.6h-17.2l-3.8,9.6h-4.7ZM478.7,26.4h14.4l-7.1-18.2h-.1l-7.1,18.2Z"/>
    <path class="Graphic_x0020_Style" d="M514.8,39.7V1.5h11.7c4.7,0,8.2,1,10.7,2.9,2.5,1.9,3.7,4.7,3.7,8.4s-.7,5.1-2.2,6.8c-1.5,1.8-3.6,3-6.3,3.7l9.8,16.3h-4.9l-9.4-15.7c-.3,0-.5,0-.7,0s-.5,0-.7,0h-7.4v15.6h-4.4ZM519.2,20.4h7.5c3.2,0,5.7-.6,7.4-1.9,1.7-1.3,2.6-3.2,2.6-5.6s-.9-4.4-2.6-5.6c-1.7-1.3-4.2-1.9-7.4-1.9h-7.5v15.2Z"/>
    <path class="Graphic_x0020_Style" d="M567,5.3v34.5h-4.4V5.3h-12V1.5h28.4v3.7h-12Z"/>
    <path class="Graphic_x0020_Style" d="M590.5,39.7V1.5h4.4v38.2h-4.4Z"/>
    <path class="Graphic_x0020_Style" d="M610.7,39.7V1.5h22.2v3.7h-17.8v13.7h15.8v3.7h-15.8v17h-4.4Z"/>
    <path class="Graphic_x0020_Style" d="M640.3,39.7l15.4-38.2h3.4l15.4,38.2h-4.7l-3.8-9.6h-17.2l-3.8,9.6h-4.7ZM650.2,26.4h14.4l-7.1-18.2h-.1l-7.1,18.2Z"/>
    <path class="Graphic_x0020_Style" d="M700.1,40.3c-5.3,0-9.3-1.7-12.1-5.1-2.8-3.4-4.1-8.2-4.1-14.6s1.4-11.2,4.1-14.6c2.8-3.4,6.8-5.1,12.1-5.1s7.7,1.2,10.1,3.6c2.5,2.4,4,5.8,4.5,10.3h-4.4c-.5-3.3-1.6-5.8-3.3-7.6-1.7-1.7-4-2.6-7-2.6s-6.8,1.4-8.8,4.1c-2,2.8-3,6.7-3,11.8s1,9,3,11.8c2,2.8,5,4.1,8.8,4.1s5.2-.9,7-2.6c1.7-1.7,2.8-4.3,3.3-7.6h4.4c-.5,4.5-2,8-4.5,10.3-2.5,2.4-5.9,3.6-10.1,3.6Z"/>
    <path class="Graphic_x0020_Style" d="M739.7,5.3v34.5h-4.4V5.3h-12V1.5h28.4v3.7h-12Z"/>
  </g>
</svg>